<svg width="64" height="64" viewBox="0 0 64 64" fill="none" xmlns="http://www.w3.org/2000/svg">
  <circle cx="32" cy="32" r="32" fill="#1e40af"/>
  <path d="M32 16C26.48 16 22 20.48 22 26C22 35 32 48 32 48C32 48 42 35 42 26C42 20.48 37.52 16 32 16ZM32 30C29.79 30 28 28.21 28 26C28 23.79 29.79 22 32 22C34.21 22 36 23.79 36 26C36 28.21 34.21 30 32 30Z" fill="white"/>
  <path d="M24 40C24 37.79 25.79 36 28 36C30.21 36 32 37.79 32 40C32 42.21 30.21 44 28 44C25.79 44 24 42.21 24 40Z" fill="#059669"/>
  <path d="M32 40C32 37.79 33.79 36 36 36C38.21 36 40 37.79 40 40C40 42.21 38.21 44 36 44C33.79 44 32 42.21 32 40Z" fill="#ea580c"/>
  <circle cx="32" cy="32" r="2" fill="#ffffff"/>
</svg>